<?xml version="1.0" encoding="UTF-8"?>
<!DOCTYPE svg PUBLIC "-//W3C//DTD SVG 1.1//EN" "http://www.w3.org/Graphics/SVG/1.1/DTD/svg11.dtd">
<svg xmlns="http://www.w3.org/2000/svg" version="1.1" width="512px" height="512px" style="shape-rendering:geometricPrecision; text-rendering:geometricPrecision; image-rendering:optimizeQuality; fill-rule:evenodd; clip-rule:evenodd" xmlns:xlink="http://www.w3.org/1999/xlink">
<g><path style="opacity:0.997" fill="#fcb441" d="M 232.5,-0.5 C 247.833,-0.5 263.167,-0.5 278.5,-0.5C 302.773,2.15029 326.439,7.81696 349.5,16.5C 426.701,68.198 467.035,140.865 470.5,234.5C 458.93,222.93 445.596,220.43 430.5,227C 415.149,237.219 410.483,251.052 416.5,268.5C 415.25,268.577 414.417,269.244 414,270.5C 412.615,290.234 421.449,302.734 440.5,308C 447.419,309.137 453.919,307.971 460,304.5C 457.026,316.418 453.026,328.085 448,339.5C 442.729,350.377 437.229,361.044 431.5,371.5C 424.032,363.199 416.032,355.366 407.5,348C 398.487,342.003 389.487,342.003 380.5,348C 375.333,353.167 370.167,358.333 365,363.5C 363.593,368.357 364.76,372.357 368.5,375.5C 363.527,377.812 362.36,381.479 365,386.5C 375.014,396.347 384.848,406.347 394.5,416.5C 386.033,425.212 377.033,433.212 367.5,440.5C 358.839,443.999 350.505,448.332 342.5,453.5C 332.389,436.785 322.389,419.952 312.5,403C 303.912,399.606 299.746,402.439 300,411.5C 301.394,413.388 302.56,415.388 303.5,417.5C 301.983,417.511 300.816,418.177 300,419.5C 299.333,421.833 299.333,424.167 300,426.5C 307.5,439.5 315,452.5 322.5,465.5C 317.337,469.176 311.67,472.01 305.5,474C 296.558,477.148 287.558,479.981 278.5,482.5C 279.631,474.913 279.798,467.246 279,459.5C 277.971,455.111 276.138,451.111 273.5,447.5C 283.153,432.308 280.487,419.808 265.5,410C 256.323,407.562 246.989,406.896 237.5,408C 235,409.167 233.167,411 232,413.5C 231.178,436.573 231.345,459.573 232.5,482.5C 231.527,484.948 231.194,487.615 231.5,490.5C 193.268,492.451 156.268,486.784 120.5,473.5C 49.5134,427.782 9.1801,362.782 -0.5,278.5C -0.5,263.167 -0.5,247.833 -0.5,232.5C 10.3875,142.857 54.7208,75.3573 132.5,30C 163.971,13.3053 197.304,3.1386 232.5,-0.5 Z"/></g>
<g><path style="opacity:1" fill="#fda714" d="M 349.5,16.5 C 444.208,57.8952 498.208,129.895 511.5,232.5C 511.5,247.833 511.5,263.167 511.5,278.5C 500.612,368.144 456.279,435.644 378.5,481C 347.029,497.695 313.696,507.861 278.5,511.5C 263.167,511.5 247.833,511.5 232.5,511.5C 192.238,507.413 154.905,494.746 120.5,473.5C 156.268,486.784 193.268,492.451 231.5,490.5C 231.194,487.615 231.527,484.948 232.5,482.5C 235.152,486.314 238.819,487.481 243.5,486C 244.71,484.961 245.71,483.794 246.5,482.5C 247.461,484.265 247.795,486.265 247.5,488.5C 252.793,487.554 258.126,486.887 263.5,486.5C 263.232,484.901 263.566,483.568 264.5,482.5C 267.152,486.314 270.819,487.481 275.5,486C 276.71,484.961 277.71,483.794 278.5,482.5C 287.558,479.981 296.558,477.148 305.5,474C 311.67,472.01 317.337,469.176 322.5,465.5C 315,452.5 307.5,439.5 300,426.5C 299.333,424.167 299.333,421.833 300,419.5C 300.816,418.177 301.983,417.511 303.5,417.5C 313.526,435.719 324.193,453.553 335.5,471C 338.594,471.652 341.594,471.318 344.5,470C 353.335,464.415 362.335,459.081 371.5,454C 376.268,447.666 374.934,443.166 367.5,440.5C 377.033,433.212 386.033,425.212 394.5,416.5C 384.848,406.347 375.014,396.347 365,386.5C 362.36,381.479 363.527,377.812 368.5,375.5C 383.299,389.798 397.965,404.298 412.5,419C 415.5,421 418.5,421 421.5,419C 426,414.5 430.5,410 435,405.5C 443.201,393.115 442.034,381.782 431.5,371.5C 437.229,361.044 442.729,350.377 448,339.5C 453.026,328.085 457.026,316.418 460,304.5C 453.919,307.971 447.419,309.137 440.5,308C 421.449,302.734 412.615,290.234 414,270.5C 414.417,269.244 415.25,268.577 416.5,268.5C 427.3,287.265 442.633,292.098 462.5,283C 480.152,269.241 482.818,253.074 470.5,234.5C 467.035,140.865 426.701,68.198 349.5,16.5 Z"/></g>
<g><path style="opacity:1" fill="#fffefe" d="M 246.5,29.5 C 246.5,49.1667 246.5,68.8333 246.5,88.5C 255.5,88.5 264.5,88.5 273.5,88.5C 275.371,88.8588 276.871,89.8588 278,91.5C 279.188,95.7414 278.355,99.4081 275.5,102.5C 262.163,102.667 248.829,102.5 235.5,102C 233.859,100.871 232.859,99.371 232.5,97.5C 232.333,74.1643 232.5,50.831 233,27.5C 235.909,24.6061 239.409,23.7728 243.5,25C 245.141,26.129 246.141,27.629 246.5,29.5 Z"/></g>
<g><path style="opacity:1" fill="#fffdfb" d="M 173.5,55.5 C 167.031,58.9024 160.697,62.5691 154.5,66.5C 156.499,70.4746 158.832,74.1413 161.5,77.5C 161.415,78.9953 162.081,79.9953 163.5,80.5C 166.917,78.5636 170.417,76.8969 174,75.5C 180.515,77.327 182.515,81.327 180,87.5C 176.922,89.9554 173.756,92.2887 170.5,94.5C 173.041,99.0825 175.707,103.582 178.5,108C 186.74,103.88 195.073,99.7133 203.5,95.5C 209.631,96.129 212.131,99.4624 211,105.5C 209.975,107.687 208.475,109.354 206.5,110.5C 197.073,115.41 187.74,120.576 178.5,126C 176.029,126.706 173.695,126.373 171.5,125C 160.777,107.72 150.444,90.2195 140.5,72.5C 139.56,70.3875 138.394,68.3875 137,66.5C 135.707,62.4179 136.874,59.2513 140.5,57C 147.833,52.6667 155.167,48.3333 162.5,44C 166.387,40.9702 170.72,39.9702 175.5,41C 181.053,46.6338 180.387,51.4671 173.5,55.5 Z"/></g>
<g><path style="opacity:1" fill="#fffdfb" d="M 344.5,57.5 C 335.356,71.7738 326.689,86.4405 318.5,101.5C 319.94,102.952 321.606,103.952 323.5,104.5C 328.605,107.892 333.938,111.059 339.5,114C 344.833,118.333 344.833,122.667 339.5,127C 337.527,127.495 335.527,127.662 333.5,127.5C 323.7,122.433 314.033,117.099 304.5,111.5C 300.923,109.142 299.756,105.809 301,101.5C 312,82.5 323,63.5 334,44.5C 340.627,39.6253 345.127,41.1253 347.5,49C 346.633,51.8958 345.633,54.7291 344.5,57.5 Z"/></g>
<g><path style="opacity:1" fill="#fed694" d="M 246.5,29.5 C 247.497,48.6595 247.83,67.9928 247.5,87.5C 256.349,87.1736 265.016,87.507 273.5,88.5C 264.5,88.5 255.5,88.5 246.5,88.5C 246.5,68.8333 246.5,49.1667 246.5,29.5 Z"/></g>
<g><path style="opacity:1" fill="#fea819" d="M 173.5,55.5 C 179.567,57.0637 181.067,60.7304 178,66.5C 172.693,70.5622 167.193,74.2289 161.5,77.5C 158.832,74.1413 156.499,70.4746 154.5,66.5C 160.697,62.5691 167.031,58.9024 173.5,55.5 Z"/></g>
<g><path style="opacity:1" fill="#fea81b" d="M 344.5,57.5 C 347.236,59.8579 348.07,62.8579 347,66.5C 340.253,78.9957 333.253,91.3291 326,103.5C 325.329,104.252 324.496,104.586 323.5,104.5C 321.606,103.952 319.94,102.952 318.5,101.5C 326.689,86.4405 335.356,71.7738 344.5,57.5 Z"/></g>
<g><path style="opacity:1" fill="#fea818" d="M 140.5,72.5 C 150.444,90.2195 160.777,107.72 171.5,125C 173.695,126.373 176.029,126.706 178.5,126C 187.74,120.576 197.073,115.41 206.5,110.5C 209.853,111.512 211.52,113.846 211.5,117.5C 211.444,120.111 210.444,122.278 208.5,124C 198.5,129.667 188.5,135.333 178.5,141C 176.029,141.706 173.695,141.373 171.5,140C 159.874,120.582 148.374,101.082 137,81.5C 136.333,79.1667 136.333,76.8333 137,74.5C 137.816,73.1772 138.983,72.5106 140.5,72.5 Z"/></g>
<g><path style="opacity:1" fill="#fffefc" d="M 141.5,158.5 C 138.813,158.664 136.146,158.497 133.5,158C 127.333,151.833 121.167,145.667 115,139.5C 110.984,143.348 107.151,147.348 103.5,151.5C 105.521,154.188 107.854,156.521 110.5,158.5C 114.497,162.665 118.33,166.998 122,171.5C 122.923,175.983 121.423,179.317 117.5,181.5C 115.473,181.662 113.473,181.495 111.5,181C 96.6319,165.965 81.6319,151.131 66.5,136.5C 62.0636,132.614 61.397,128.114 64.5,123C 67.8333,121 71.1667,121 74.5,123C 80.1667,128.667 85.8333,134.333 91.5,140C 94.1207,139.573 96.1207,138.073 97.5,135.5C 100.847,133.689 102.68,131.022 103,127.5C 98.6312,122.963 94.1312,118.63 89.5,114.5C 82.9908,109.198 82.9908,104.031 89.5,99C 91.9712,98.2937 94.3046,98.627 96.5,100C 112.333,115.833 128.167,131.667 144,147.5C 145.188,151.741 144.355,155.408 141.5,158.5 Z"/></g>
<g><path style="opacity:1" fill="#fea91e" d="M 232.5,97.5 C 232.859,99.371 233.859,100.871 235.5,102C 248.829,102.5 262.163,102.667 275.5,102.5C 281.128,107.829 280.795,112.663 274.5,117C 261.833,117.667 249.167,117.667 236.5,117C 234.333,116.167 232.833,114.667 232,112.5C 231.184,107.316 231.35,102.316 232.5,97.5 Z"/></g>
<g><path style="opacity:1" fill="#fffdfc" d="M 439.5,135.5 C 438.68,137.14 437.847,138.807 437,140.5C 426.77,151.399 415.937,161.566 404.5,171C 390.48,175.649 380.147,171.482 373.5,158.5C 370.729,151.79 370.896,145.123 374,138.5C 384.534,126.299 396.034,115.132 408.5,105C 424.822,100.743 435.656,106.577 441,122.5C 441.85,127.021 441.35,131.355 439.5,135.5 Z"/></g>
<g><path style="opacity:1" fill="#fea716" d="M 304.5,111.5 C 314.033,117.099 323.7,122.433 333.5,127.5C 335.631,128.314 337.964,128.814 340.5,129C 344.646,133.625 344.313,137.959 339.5,142C 336.833,142.667 334.167,142.667 331.5,142C 321.749,136.041 311.916,130.207 302,124.5C 300.543,121.634 300.21,118.634 301,115.5C 301.498,113.456 302.665,112.122 304.5,111.5 Z"/></g>
<g><path style="opacity:1" fill="#fea91c" d="M 89.5,114.5 C 94.1312,118.63 98.6312,122.963 103,127.5C 102.68,131.022 100.847,133.689 97.5,135.5C 92.5635,132.399 88.3969,128.399 85,123.5C 84.1533,120.412 84.6533,117.579 86.5,115C 87.448,114.517 88.448,114.351 89.5,114.5 Z"/></g>
<g><path style="opacity:1" fill="#fea81a" d="M 422.5,133.5 C 419.022,133.184 415.688,133.684 412.5,135C 405.297,142.035 398.297,149.202 391.5,156.5C 389.248,156.084 387.748,154.751 387,152.5C 386.245,149.697 386.578,147.03 388,144.5C 396.167,136.333 404.333,128.167 412.5,120C 421.453,116.961 425.953,120.128 426,129.5C 425.34,131.324 424.173,132.657 422.5,133.5 Z"/></g>
<g><path style="opacity:1" fill="#03c0f9" d="M 296.5,134.5 C 296.167,135.167 295.833,135.833 295.5,136.5C 293.692,137.907 291.692,139.074 289.5,140C 282.833,140.333 276.167,140.667 269.5,141C 263.922,143.706 258.422,146.539 253,149.5C 250.937,153.496 250.103,157.829 250.5,162.5C 248.905,173.151 252.905,180.651 262.5,185C 268.275,187.036 274.108,188.869 280,190.5C 286.334,188.084 292.5,185.251 298.5,182C 309.477,183.823 320.144,186.989 330.5,191.5C 332.678,193.858 334.345,196.525 335.5,199.5C 336.408,202.987 338.074,205.987 340.5,208.5C 346.617,247.699 337.784,283.366 314,315.5C 306.871,323.472 299.038,330.472 290.5,336.5C 297.162,329.671 303.662,322.671 310,315.5C 310.333,309.833 310.667,304.167 311,298.5C 316.333,290.5 321.667,282.5 327,274.5C 327.896,269.051 327.563,263.718 326,258.5C 321.271,257.039 316.438,255.873 311.5,255C 308.293,248.728 305.459,242.228 303,235.5C 300.92,233.877 298.754,232.377 296.5,231C 280.833,230.667 265.167,230.333 249.5,230C 245.5,228 241.5,226 237.5,224C 235.5,223.333 233.5,223.333 231.5,224C 223.667,231.833 215.833,239.667 208,247.5C 207.087,256.576 207.42,265.576 209,274.5C 211.124,278.313 214.291,280.813 218.5,282C 228.5,282.333 238.5,282.667 248.5,283C 249.416,283.374 250.25,283.874 251,284.5C 253.667,291.833 256.333,299.167 259,306.5C 258.163,319.002 260.163,331.002 265,342.5C 266.484,346.488 269.317,348.154 273.5,347.5C 271.572,349.474 269.239,350.974 266.5,352C 238.875,363.264 210.542,365.431 181.5,358.5C 180.893,358.624 180.56,358.957 180.5,359.5C 174.511,354.843 168.844,349.843 163.5,344.5C 167.078,337.739 170.911,331.072 175,324.5C 175.667,314.167 175.667,303.833 175,293.5C 174.215,291.714 173.049,290.214 171.5,289C 165.255,285.961 159.088,282.794 153,279.5C 149.882,272.761 146.382,266.261 142.5,260C 137.777,257.765 132.777,256.931 127.5,257.5C 126.901,240.162 129.901,223.495 136.5,207.5C 146.172,207.666 155.839,207.5 165.5,207C 170.371,206.136 174.204,203.636 177,199.5C 179.377,193.238 182.877,187.738 187.5,183C 193.5,180 199.5,177 205.5,174C 206.211,172.745 207.044,171.579 208,170.5C 211.015,158.106 214.182,145.772 217.5,133.5C 229.149,129.143 241.316,127.143 254,127.5C 268.725,127.386 282.892,129.719 296.5,134.5 Z"/></g>
<g><path style="opacity:1" fill="#fdb442" d="M 422.5,133.5 C 415.369,141.132 408.036,148.632 400.5,156C 397.44,157.663 394.44,157.83 391.5,156.5C 398.297,149.202 405.297,142.035 412.5,135C 415.688,133.684 419.022,133.184 422.5,133.5 Z"/></g>
<g><path style="opacity:1" fill="#0fe29b" d="M 217.5,133.5 C 214.182,145.772 211.015,158.106 208,170.5C 207.044,171.579 206.211,172.745 205.5,174C 199.5,177 193.5,180 187.5,183C 182.877,187.738 179.377,193.238 177,199.5C 174.204,203.636 170.371,206.136 165.5,207C 155.839,207.5 146.172,207.666 136.5,207.5C 152.064,170.267 179.064,145.601 217.5,133.5 Z"/></g>
<g><path style="opacity:1" fill="#15d190" d="M 296.5,134.5 C 338.403,149.238 365.903,177.905 379,220.5C 382.607,232.916 384.107,245.582 383.5,258.5C 373.776,244.739 364.276,230.739 355,216.5C 353.5,215 352,213.5 350.5,212C 346.654,211.987 343.321,210.82 340.5,208.5C 338.074,205.987 336.408,202.987 335.5,199.5C 336.097,199.265 336.43,198.765 336.5,198C 328.681,173.508 315.014,153.008 295.5,136.5C 295.833,135.833 296.167,135.167 296.5,134.5 Z"/></g>
<g><path style="opacity:1" fill="#fea819" d="M 439.5,135.5 C 442.434,142.299 441.601,148.966 437,155.5C 426.77,166.399 415.937,176.566 404.5,186C 388.902,190.617 378.069,185.45 372,170.5C 371.333,166.833 371.333,163.167 372,159.5C 372.383,158.944 372.883,158.611 373.5,158.5C 380.147,171.482 390.48,175.649 404.5,171C 415.937,161.566 426.77,151.399 437,140.5C 437.847,138.807 438.68,137.14 439.5,135.5 Z"/></g>
<g><path style="opacity:1" fill="#fea81b" d="M 66.5,136.5 C 81.6319,151.131 96.6319,165.965 111.5,181C 113.473,181.495 115.473,181.662 117.5,181.5C 119.752,181.916 121.252,183.249 122,185.5C 122.938,194.567 119.105,197.734 110.5,195C 94.6667,179.167 78.8333,163.333 63,147.5C 60.3604,142.479 61.5271,138.812 66.5,136.5 Z"/></g>
<g><path style="opacity:1" fill="#05e29c" d="M 295.5,136.5 C 315.014,153.008 328.681,173.508 336.5,198C 336.43,198.765 336.097,199.265 335.5,199.5C 334.345,196.525 332.678,193.858 330.5,191.5C 320.144,186.989 309.477,183.823 298.5,182C 292.5,185.251 286.334,188.084 280,190.5C 274.108,188.869 268.275,187.036 262.5,185C 252.905,180.651 248.905,173.151 250.5,162.5C 250.103,157.829 250.937,153.496 253,149.5C 258.422,146.539 263.922,143.706 269.5,141C 276.167,140.667 282.833,140.333 289.5,140C 291.692,139.074 293.692,137.907 295.5,136.5 Z"/></g>
<g><path style="opacity:1" fill="#fea818" d="M 141.5,158.5 C 146.248,162.718 146.581,167.218 142.5,172C 139.167,174 135.833,174 132.5,172C 126.667,166.167 120.833,160.333 115,154.5C 113.629,156.041 112.129,157.375 110.5,158.5C 107.854,156.521 105.521,154.188 103.5,151.5C 107.151,147.348 110.984,143.348 115,139.5C 121.167,145.667 127.333,151.833 133.5,158C 136.146,158.497 138.813,158.664 141.5,158.5 Z"/></g>
<g><path style="opacity:1" fill="#0da9f0" d="M 340.5,208.5 C 343.321,210.82 346.654,211.987 350.5,212C 352,213.5 353.5,215 355,216.5C 364.276,230.739 373.776,244.739 383.5,258.5C 383.706,262.898 383.373,267.232 382.5,271.5C 375.628,317.766 351.294,351.266 309.5,372C 264.11,390.966 221.11,386.799 180.5,359.5C 180.56,358.957 180.893,358.624 181.5,358.5C 210.542,365.431 238.875,363.264 266.5,352C 269.239,350.974 271.572,349.474 273.5,347.5C 280.363,345.575 286.029,341.909 290.5,336.5C 299.038,330.472 306.871,323.472 314,315.5C 337.784,283.366 346.617,247.699 340.5,208.5 Z"/></g>
<g><path style="opacity:1" fill="#11e29a" d="M 94.5,268.5 C 85.6882,284.401 72.3549,290.235 54.5,286C 45.6752,282.341 39.3419,276.175 35.5,267.5C 29.5603,247.812 35.8936,233.645 54.5,225C 79.0258,220.54 93.3591,230.54 97.5,255C 97.1955,259.693 96.1955,264.193 94.5,268.5 Z"/></g>
<g><path style="opacity:1" fill="#14e199" d="M 470.5,234.5 C 482.818,253.074 480.152,269.241 462.5,283C 442.633,292.098 427.3,287.265 416.5,268.5C 410.483,251.052 415.149,237.219 430.5,227C 445.596,220.43 458.93,222.93 470.5,234.5 Z"/></g>
<g><path style="opacity:1" fill="#05e29c" d="M 290.5,336.5 C 286.029,341.909 280.363,345.575 273.5,347.5C 269.317,348.154 266.484,346.488 265,342.5C 260.163,331.002 258.163,319.002 259,306.5C 256.333,299.167 253.667,291.833 251,284.5C 250.25,283.874 249.416,283.374 248.5,283C 238.5,282.667 228.5,282.333 218.5,282C 214.291,280.813 211.124,278.313 209,274.5C 207.42,265.576 207.087,256.576 208,247.5C 215.833,239.667 223.667,231.833 231.5,224C 233.5,223.333 235.5,223.333 237.5,224C 241.5,226 245.5,228 249.5,230C 265.167,230.333 280.833,230.667 296.5,231C 298.754,232.377 300.92,233.877 303,235.5C 305.459,242.228 308.293,248.728 311.5,255C 316.438,255.873 321.271,257.039 326,258.5C 327.563,263.718 327.896,269.051 327,274.5C 321.667,282.5 316.333,290.5 311,298.5C 310.667,304.167 310.333,309.833 310,315.5C 303.662,322.671 297.162,329.671 290.5,336.5 Z"/></g>
<g><path style="opacity:1" fill="#11e29b" d="M 127.5,257.5 C 132.777,256.931 137.777,257.765 142.5,260C 146.382,266.261 149.882,272.761 153,279.5C 159.088,282.794 165.255,285.961 171.5,289C 173.049,290.214 174.215,291.714 175,293.5C 175.667,303.833 175.667,314.167 175,324.5C 170.911,331.072 167.078,337.739 163.5,344.5C 143.63,324.286 131.963,299.952 128.5,271.5C 127.686,266.881 127.353,262.214 127.5,257.5 Z"/></g>
<g><path style="opacity:1" fill="#fda715" d="M 35.5,267.5 C 39.3419,276.175 45.6752,282.341 54.5,286C 72.3549,290.235 85.6882,284.401 94.5,268.5C 95.7498,268.577 96.5831,269.244 97,270.5C 97.9282,292.907 87.2615,305.573 65,308.5C 45.2981,306.466 34.7981,295.633 33.5,276C 33.5191,272.748 34.1858,269.915 35.5,267.5 Z"/></g>
<g><path style="opacity:1" fill="#fda715" d="M 128.5,271.5 C 131.963,299.952 143.63,324.286 163.5,344.5C 168.844,349.843 174.511,354.843 180.5,359.5C 221.11,386.799 264.11,390.966 309.5,372C 351.294,351.266 375.628,317.766 382.5,271.5C 383.049,326.221 359.049,366.388 310.5,392C 252.222,415.552 201.389,404.719 158,359.5C 136.958,333.787 127.125,304.454 128.5,271.5 Z"/></g>
<g><path style="opacity:1" fill="#0fbff7" d="M 119.5,346.5 C 109.368,356.131 99.3683,365.964 89.5,376C 93.3045,376.013 96.6378,377.179 99.5,379.5C 100.241,382.413 100.741,385.413 101,388.5C 112.167,377.333 123.333,366.167 134.5,355C 140.789,352.647 144.789,354.814 146.5,361.5C 145.634,364.692 143.968,367.359 141.5,369.5C 126.701,383.798 112.035,398.298 97.5,413C 92.562,415.65 88.8953,414.483 86.5,409.5C 85.8902,408.609 85.5569,407.609 85.5,406.5C 85.5,401.5 85.5,396.5 85.5,391.5C 79.5,391.5 73.5,391.5 67.5,391.5C 63.8298,388.795 62.6631,385.128 64,380.5C 80.1667,364.333 96.3333,348.167 112.5,332C 124.229,332.106 126.563,336.939 119.5,346.5 Z"/></g>
<g><path style="opacity:1" fill="#18bff5" d="M 431.5,371.5 C 442.034,381.782 443.201,393.115 435,405.5C 430.5,410 426,414.5 421.5,419C 418.5,421 415.5,421 412.5,419C 397.965,404.298 383.299,389.798 368.5,375.5C 364.76,372.357 363.593,368.357 365,363.5C 370.167,358.333 375.333,353.167 380.5,348C 389.487,342.003 398.487,342.003 407.5,348C 416.032,355.366 424.032,363.199 431.5,371.5 Z"/></g>
<g><path style="opacity:1" fill="#fba717" d="M 119.5,346.5 C 123.787,349.622 124.621,353.622 122,358.5C 114.911,366.094 107.411,373.094 99.5,379.5C 96.6378,377.179 93.3045,376.013 89.5,376C 99.3683,365.964 109.368,356.131 119.5,346.5 Z"/></g>
<g><path style="opacity:1" fill="#fba719" d="M 412.5,397.5 C 413.684,395.537 414.517,393.537 415,391.5C 409.5,386 404,380.5 398.5,375C 395.518,374.502 392.518,374.335 389.5,374.5C 386.281,372.472 384.114,369.805 383,366.5C 385.205,363.96 387.705,361.793 390.5,360C 393.634,359.21 396.634,359.543 399.5,361C 408.364,369.53 416.864,378.363 425,387.5C 425.706,389.971 425.373,392.305 424,394.5C 421.609,397.597 418.776,399.763 415.5,401C 414.29,399.961 413.29,398.794 412.5,397.5 Z"/></g>
<g><path style="opacity:1" fill="#fba718" d="M 141.5,369.5 C 146.473,371.812 147.64,375.479 145,380.5C 129.167,396.333 113.333,412.167 97.5,428C 88.5472,429.55 84.5472,425.717 85.5,416.5C 85.5034,413.975 85.8367,411.641 86.5,409.5C 88.8953,414.483 92.562,415.65 97.5,413C 112.035,398.298 126.701,383.798 141.5,369.5 Z"/></g>
<g><path style="opacity:1" fill="#f6b446" d="M 389.5,374.5 C 392.518,374.335 395.518,374.502 398.5,375C 404,380.5 409.5,386 415,391.5C 414.517,393.537 413.684,395.537 412.5,397.5C 404.5,390.167 396.833,382.5 389.5,374.5 Z"/></g>
<g><path style="opacity:1" fill="#fda715" d="M 67.5,391.5 C 73.5,391.5 79.5,391.5 85.5,391.5C 85.5,396.5 85.5,401.5 85.5,406.5C 79.0478,406.916 72.7145,406.416 66.5,405C 61.0281,400.059 61.3614,395.559 67.5,391.5 Z"/></g>
<g><path style="opacity:1" fill="#19bff5" d="M 202.5,423.5 C 196.265,434.969 189.765,446.302 183,457.5C 173.052,466.677 162.219,467.843 150.5,461C 147.177,458.517 144.843,455.351 143.5,451.5C 141.072,445.6 140.905,439.6 143,433.5C 149,422.833 155,412.167 161,401.5C 174.272,386.904 187.605,386.904 201,401.5C 204.931,408.661 205.431,415.994 202.5,423.5 Z"/></g>
<g><path style="opacity:1" fill="#19bff5" d="M 367.5,440.5 C 374.934,443.166 376.268,447.666 371.5,454C 362.335,459.081 353.335,464.415 344.5,470C 341.594,471.318 338.594,471.652 335.5,471C 324.193,453.553 313.526,435.719 303.5,417.5C 302.56,415.388 301.394,413.388 300,411.5C 299.746,402.439 303.912,399.606 312.5,403C 322.389,419.952 332.389,436.785 342.5,453.5C 350.505,448.332 358.839,443.999 367.5,440.5 Z"/></g>
<g><path style="opacity:1" fill="#faa719" d="M 186.5,421.5 C 181.577,419.439 177.41,420.439 174,424.5C 169.235,432.365 164.735,440.365 160.5,448.5C 156.922,446.098 155.755,442.765 157,438.5C 163.124,427.749 169.624,417.249 176.5,407C 188.649,405.802 191.982,410.636 186.5,421.5 Z"/></g>
<g><path style="opacity:1" fill="#2cbff1" d="M 278.5,482.5 C 277.71,483.794 276.71,484.961 275.5,486C 270.819,487.481 267.152,486.314 264.5,482.5C 263.612,479.946 263.279,477.279 263.5,474.5C 267.343,460.027 262.01,453.693 247.5,455.5C 247.5,460.167 247.5,464.833 247.5,469.5C 247.769,473.931 247.436,478.265 246.5,482.5C 245.71,483.794 244.71,484.961 243.5,486C 238.819,487.481 235.152,486.314 232.5,482.5C 231.345,459.573 231.178,436.573 232,413.5C 233.167,411 235,409.167 237.5,408C 246.989,406.896 256.323,407.562 265.5,410C 280.487,419.808 283.153,432.308 273.5,447.5C 276.138,451.111 277.971,455.111 279,459.5C 279.798,467.246 279.631,474.913 278.5,482.5 Z"/></g>
<g><path style="opacity:1" fill="#fab442" d="M 186.5,421.5 C 181.678,429.806 176.845,438.139 172,446.5C 168.538,450.716 164.705,451.383 160.5,448.5C 164.735,440.365 169.235,432.365 174,424.5C 177.41,420.439 181.577,419.439 186.5,421.5 Z"/></g>
<g><path style="opacity:1" fill="#fca717" d="M 202.5,423.5 C 203.794,425.048 204.461,427.048 204.5,429.5C 204.333,431.5 204.167,433.5 204,435.5C 197.253,447.996 190.253,460.329 183,472.5C 171.875,482.414 160.375,482.914 148.5,474C 141.521,467.344 139.855,459.844 143.5,451.5C 144.843,455.351 147.177,458.517 150.5,461C 162.219,467.843 173.052,466.677 183,457.5C 189.765,446.302 196.265,434.969 202.5,423.5 Z"/></g>
<g><path style="opacity:1" fill="#7eb58d" d="M 247.5,423.5 C 247.5,428.833 247.5,434.167 247.5,439.5C 250.833,439.5 254.167,439.5 257.5,439.5C 254.038,440.482 250.371,440.815 246.5,440.5C 246.178,434.642 246.511,428.975 247.5,423.5 Z"/></g>
<g><path style="opacity:1" fill="#fca81a" d="M 247.5,423.5 C 251.514,423.334 255.514,423.501 259.5,424C 263.277,426.955 264.443,430.788 263,435.5C 261.549,437.464 259.716,438.797 257.5,439.5C 254.167,439.5 250.833,439.5 247.5,439.5C 247.5,434.167 247.5,428.833 247.5,423.5 Z"/></g>
<g><path style="opacity:1" fill="#fda714" d="M 263.5,474.5 C 262.326,472.559 260.659,471.059 258.5,470C 254.848,469.501 251.182,469.335 247.5,469.5C 247.5,464.833 247.5,460.167 247.5,455.5C 262.01,453.693 267.343,460.027 263.5,474.5 Z"/></g>
<g><path style="opacity:1" fill="#fcb340" d="M 247.5,469.5 C 251.182,469.335 254.848,469.501 258.5,470C 260.659,471.059 262.326,472.559 263.5,474.5C 263.279,477.279 263.612,479.946 264.5,482.5C 263.566,483.568 263.232,484.901 263.5,486.5C 258.126,486.887 252.793,487.554 247.5,488.5C 247.795,486.265 247.461,484.265 246.5,482.5C 247.436,478.265 247.769,473.931 247.5,469.5 Z"/></g>
</svg>
