<?xml version="1.0" encoding="UTF-8"?>
<!DOCTYPE svg PUBLIC "-//W3C//DTD SVG 1.1//EN" "http://www.w3.org/Graphics/SVG/1.1/DTD/svg11.dtd">
<svg xmlns="http://www.w3.org/2000/svg" version="1.1" width="512px" height="512px" style="shape-rendering:geometricPrecision; text-rendering:geometricPrecision; image-rendering:optimizeQuality; fill-rule:evenodd; clip-rule:evenodd" xmlns:xlink="http://www.w3.org/1999/xlink">
<g><path style="opacity:0.812" fill="#efe5ab" d="M 473.5,83.5 C 327.145,83.1728 180.812,83.5062 34.5,84.5C 35.2625,83.7321 36.2625,83.2321 37.5,83C 183.001,82.1672 328.334,82.3339 473.5,83.5 Z"/></g>
<g><path style="opacity:1" fill="#f6df7e" d="M 473.5,83.5 C 475.553,83.4021 477.22,84.0687 478.5,85.5C 479.785,87.4516 481.451,89.1182 483.5,90.5C 483.427,92.0269 484.094,93.0269 485.5,93.5C 486.434,94.5676 486.768,95.901 486.5,97.5C 486.5,112.833 486.5,128.167 486.5,143.5C 332.5,143.5 178.5,143.5 24.5,143.5C 24.5,128.167 24.5,112.833 24.5,97.5C 24.2322,95.901 24.5655,94.5676 25.5,93.5C 26.9063,93.0269 27.573,92.0269 27.5,90.5C 29.1667,89.5 30.5,88.1667 31.5,86.5C 33.0269,86.573 34.0269,85.9063 34.5,84.5C 180.812,83.5062 327.145,83.1728 473.5,83.5 Z"/></g>
<g><path style="opacity:0.98" fill="#ede7bf" d="M 34.5,84.5 C 34.0269,85.9063 33.0269,86.573 31.5,86.5C 31.9731,85.0937 32.9731,84.427 34.5,84.5 Z"/></g>
<g><path style="opacity:0.824" fill="#ebebd3" d="M 478.5,85.5 C 481.189,86.1894 482.856,87.856 483.5,90.5C 481.451,89.1182 479.785,87.4516 478.5,85.5 Z"/></g>
<g><path style="opacity:0.816" fill="#e5ecda" d="M 31.5,86.5 C 30.5,88.1667 29.1667,89.5 27.5,90.5C 27.8333,88.1667 29.1667,86.8333 31.5,86.5 Z"/></g>
<g><path style="opacity:0.545" fill="#e8e5d3" d="M 27.5,90.5 C 27.573,92.0269 26.9063,93.0269 25.5,93.5C 25.427,91.9731 26.0937,90.9731 27.5,90.5 Z"/></g>
<g><path style="opacity:0.51" fill="#e7edd7" d="M 483.5,90.5 C 484.906,90.9731 485.573,91.9731 485.5,93.5C 484.094,93.0269 483.427,92.0269 483.5,90.5 Z"/></g>
<g><path style="opacity:1" fill="#f2e39d" d="M 24.5,97.5 C 24.5,112.833 24.5,128.167 24.5,143.5C 178.5,143.5 332.5,143.5 486.5,143.5C 486.5,128.167 486.5,112.833 486.5,97.5C 487.496,112.991 487.83,128.658 487.5,144.5C 332.833,144.5 178.167,144.5 23.5,144.5C 23.1704,128.658 23.5037,112.991 24.5,97.5 Z"/></g>
<g><path style="opacity:1" fill="#e6c86b" d="M 255.5,106.5 C 319.834,106.333 384.168,106.5 448.5,107C 454.09,112.41 453.423,117.077 446.5,121C 383.5,121.667 320.5,121.667 257.5,121C 250.51,116.908 249.844,112.075 255.5,106.5 Z"/></g>
<g><path style="opacity:1" fill="#e6c86b" d="M 148.5,104.5 C 157.515,103.683 161.681,107.683 161,116.5C 158.367,121.732 154.201,123.565 148.5,122C 143.845,119.103 142.345,114.937 144,109.5C 145.193,107.503 146.693,105.836 148.5,104.5 Z"/></g>
<g><path style="opacity:1" fill="#e6c86b" d="M 110.5,104.5 C 120.212,103.709 124.045,108.043 122,117.5C 119.103,122.155 114.937,123.655 109.5,122C 102.642,115.676 102.976,109.843 110.5,104.5 Z"/></g>
<g><path style="opacity:1" fill="#e6c86b" d="M 71.5,104.5 C 80.5146,103.683 84.6813,107.683 84,116.5C 81.3674,121.732 77.2008,123.565 71.5,122C 66.8451,119.103 65.3451,114.937 67,109.5C 68.7073,107.963 70.2073,106.296 71.5,104.5 Z"/></g>
<g><path style="opacity:0.995" fill="#e0eefe" d="M 23.5,144.5 C 178.167,144.5 332.833,144.5 487.5,144.5C 487.667,234.167 487.5,323.834 487,413.5C 485.614,421.22 481.114,426.053 473.5,428C 328.167,428.667 182.833,428.667 37.5,428C 29.8858,426.053 25.3858,421.22 24,413.5C 23.5,323.834 23.3333,234.167 23.5,144.5 Z"/></g>
<g><path style="opacity:1" fill="#74b8ce" d="M 153.5,233.5 C 160.982,234.492 168.648,234.825 176.5,234.5C 176.5,228.167 176.5,221.833 176.5,215.5C 176.511,213.983 177.177,212.816 178.5,212C 181.669,211.022 184.503,211.522 187,213.5C 187.667,231.167 187.667,248.833 187,266.5C 183.952,270.01 180.619,270.343 177,267.5C 175.571,260.281 175.071,252.947 175.5,245.5C 168.167,245.5 160.833,245.5 153.5,245.5C 153.666,252.175 153.5,258.842 153,265.5C 151.309,269.213 148.475,270.379 144.5,269C 143.299,268.097 142.465,266.931 142,265.5C 141.333,248.5 141.333,231.5 142,214.5C 144.559,211.651 147.726,210.817 151.5,212C 152.126,212.75 152.626,213.584 153,214.5C 153.5,220.825 153.666,227.158 153.5,233.5 Z"/></g>
<g><path style="opacity:1" fill="#75b9cf" d="M 207.5,222.5 C 206.517,226.298 206.183,230.298 206.5,234.5C 214.167,234.5 221.833,234.5 229.5,234.5C 234.737,236.273 235.737,239.44 232.5,244C 224.277,245.438 215.943,245.938 207.5,245.5C 207.5,249.5 207.5,253.5 207.5,257.5C 215.84,257.334 224.173,257.5 232.5,258C 236.213,259.691 237.379,262.525 236,266.5C 235.097,267.701 233.931,268.535 232.5,269C 221.5,269.667 210.5,269.667 199.5,269C 198.584,268.626 197.75,268.126 197,267.5C 195.361,249.924 195.028,232.258 196,214.5C 196.833,213.667 197.667,212.833 198.5,212C 209.833,211.333 221.167,211.333 232.5,212C 236.485,215.381 236.485,218.714 232.5,222C 224.173,222.5 215.84,222.666 207.5,222.5 Z"/></g>
<g><path style="opacity:1" fill="#74b9cf" d="M 243.5,211.5 C 246.685,211.02 249.519,211.686 252,213.5C 252.5,228.163 252.667,242.83 252.5,257.5C 260.84,257.334 269.173,257.5 277.5,258C 278.416,258.374 279.25,258.874 280,259.5C 281.458,263.781 280.292,266.947 276.5,269C 266.167,269.667 255.833,269.667 245.5,269C 244.069,268.535 242.903,267.701 242,266.5C 241.333,248.833 241.333,231.167 242,213.5C 242.717,212.956 243.217,212.289 243.5,211.5 Z"/></g>
<g><path style="opacity:1" fill="#74b9cf" d="M 285.5,211.5 C 288.685,211.02 291.519,211.686 294,213.5C 294.5,228.163 294.667,242.83 294.5,257.5C 302.84,257.334 311.173,257.5 319.5,258C 320.416,258.374 321.25,258.874 322,259.5C 323.458,263.781 322.292,266.947 318.5,269C 308.167,269.667 297.833,269.667 287.5,269C 286.069,268.535 284.903,267.701 284,266.5C 283.333,248.833 283.333,231.167 284,213.5C 284.717,212.956 285.217,212.289 285.5,211.5 Z"/></g>
<g><path style="opacity:1" fill="#74b9cf" d="M 342.5,210.5 C 358.916,209.111 369.749,216.111 375,231.5C 378.288,257.872 366.788,270.372 340.5,269C 330.837,265.336 324.67,258.503 322,248.5C 318.429,229.97 325.263,217.303 342.5,210.5 Z"/></g>
<g><path style="opacity:1" fill="#dfeefe" d="M 344.5,221.5 C 353.9,220.612 360.066,224.612 363,233.5C 364.457,241.094 363.123,248.094 359,254.5C 351.396,260.073 344.063,259.74 337,253.5C 333.3,246.104 332.634,238.437 335,230.5C 337.406,226.592 340.572,223.592 344.5,221.5 Z"/></g>
<g><path style="opacity:1" fill="#b7daec" d="M 176.5,215.5 C 176.5,221.833 176.5,228.167 176.5,234.5C 168.648,234.825 160.982,234.492 153.5,233.5C 160.833,233.5 168.167,233.5 175.5,233.5C 175.177,227.31 175.51,221.31 176.5,215.5 Z"/></g>
<g><path style="opacity:1" fill="#bbdcee" d="M 207.5,222.5 C 207.5,226.167 207.5,229.833 207.5,233.5C 215.019,233.175 222.352,233.508 229.5,234.5C 221.833,234.5 214.167,234.5 206.5,234.5C 206.183,230.298 206.517,226.298 207.5,222.5 Z"/></g>
<g><path style="opacity:1" fill="#74b9cf" d="M 211.5,294.5 C 237.297,294.136 248.464,306.802 245,332.5C 239.684,348.805 228.517,355.639 211.5,353C 200.826,349.658 194.326,342.491 192,331.5C 188.587,313.649 195.087,301.316 211.5,294.5 Z"/></g>
<g><path style="opacity:1" fill="#74b9cf" d="M 121.5,294.5 C 124.652,293.959 127.152,294.959 129,297.5C 132.486,307.774 135.819,318.108 139,328.5C 142.385,319.009 145.385,309.343 148,299.5C 151.181,293.748 155.181,293.081 160,297.5C 163.641,308.062 166.974,318.728 170,329.5C 173.585,318.906 176.918,308.239 180,297.5C 183.333,293.5 186.667,293.5 190,297.5C 190.667,299.5 190.667,301.5 190,303.5C 185.667,317.833 181.333,332.167 177,346.5C 175.085,353.445 171.085,355.112 165,351.5C 161.65,340.426 158.15,329.426 154.5,318.5C 151.637,329.234 148.471,339.901 145,350.5C 141.333,354.5 137.667,354.5 134,350.5C 129.202,335.104 124.202,319.771 119,304.5C 117.861,300.579 118.695,297.246 121.5,294.5 Z"/></g>
<g><path style="opacity:1" fill="#74b9cf" d="M 255.5,295.5 C 264.839,295.334 274.173,295.5 283.5,296C 294.217,299.26 298.384,306.426 296,317.5C 294.939,320.562 293.106,323.062 290.5,325C 293.694,329.263 295.527,334.097 296,339.5C 296.667,343.167 296.667,346.833 296,350.5C 292.751,354.367 289.418,354.367 286,350.5C 284.574,345.948 283.574,341.281 283,336.5C 282.727,334.671 281.893,333.171 280.5,332C 275.177,331.501 269.844,331.334 264.5,331.5C 264.92,338.284 264.42,344.95 263,351.5C 258.906,354.476 255.573,353.809 253,349.5C 252.333,332.5 252.333,315.5 253,298.5C 254.045,297.627 254.878,296.627 255.5,295.5 Z"/></g>
<g><path style="opacity:1" fill="#75b9cf" d="M 306.5,294.5 C 309.652,293.959 312.152,294.959 314,297.5C 314.5,312.163 314.667,326.83 314.5,341.5C 322.84,341.334 331.173,341.5 339.5,342C 340.416,342.374 341.25,342.874 342,343.5C 342.667,345.833 342.667,348.167 342,350.5C 341.25,351.126 340.416,351.626 339.5,352C 328.5,352.667 317.5,352.667 306.5,352C 304.741,350.992 303.574,349.492 303,347.5C 302.333,331.167 302.333,314.833 303,298.5C 304.376,297.295 305.542,295.962 306.5,294.5 Z"/></g>
<g><path style="opacity:1" fill="#74b9cf" d="M 347.5,295.5 C 386.179,289.993 399.679,305.66 388,342.5C 384.311,348.094 379.144,351.261 372.5,352C 364.5,352.667 356.5,352.667 348.5,352C 346.741,350.992 345.574,349.492 345,347.5C 344.333,331.5 344.333,315.5 345,299.5C 345.662,298.016 346.496,296.683 347.5,295.5 Z"/></g>
<g><path style="opacity:1" fill="#dfeefe" d="M 213.5,305.5 C 223.07,303.932 229.57,307.599 233,316.5C 235.353,326.279 232.853,334.446 225.5,341C 214.777,344.889 207.61,341.389 204,330.5C 201.077,319.703 204.244,311.369 213.5,305.5 Z"/></g>
<g><path style="opacity:1" fill="#e0eefe" d="M 264.5,306.5 C 269.844,306.334 275.177,306.501 280.5,307C 284.292,309.053 285.458,312.219 284,316.5C 283.167,317.333 282.333,318.167 281.5,319C 275.843,319.499 270.176,319.666 264.5,319.5C 264.5,315.167 264.5,310.833 264.5,306.5 Z"/></g>
<g><path style="opacity:1" fill="#dfeefe" d="M 356.5,306.5 C 377.909,304.247 385.409,313.58 379,334.5C 377.437,337.728 374.937,339.895 371.5,341C 366.511,341.499 361.511,341.666 356.5,341.5C 356.5,329.833 356.5,318.167 356.5,306.5 Z"/></g>
</svg>
