<?xml version="1.0" encoding="UTF-8"?>
<!DOCTYPE svg PUBLIC "-//W3C//DTD SVG 1.1//EN" "http://www.w3.org/Graphics/SVG/1.1/DTD/svg11.dtd">
<svg xmlns="http://www.w3.org/2000/svg" version="1.1" width="592px" height="103px" style="shape-rendering:geometricPrecision; text-rendering:geometricPrecision; image-rendering:optimizeQuality; fill-rule:evenodd; clip-rule:evenodd" xmlns:xlink="http://www.w3.org/1999/xlink">
<g><path style="opacity:0.02" fill="#000000" d="M 9.5,6.5 C 10.2389,6.36899 10.9056,6.53566 11.5,7C 10.3333,8.16667 9.16667,9.33333 8,10.5C 7.70031,8.93434 8.20031,7.60101 9.5,6.5 Z"/></g>
<g><path style="opacity:0.988" fill="#f710fb" d="M 83.5,7.5 C 64.526,9.32373 45.1926,10.1571 25.5,10C 20.4018,11.4329 16.9018,14.5995 15,19.5C 14.3333,27.5 14.3333,35.5 15,43.5C 16.2105,47.2791 18.3772,50.2791 21.5,52.5C 17.2066,52.0231 13.8733,50.0231 11.5,46.5C 11.2914,45.0783 10.7914,43.745 10,42.5C 9.50027,34.1733 9.3336,25.84 9.5,17.5C 10.9213,12.9102 13.9213,9.74351 18.5,8C 40.1641,7.50004 61.8308,7.33337 83.5,7.5 Z"/></g>
<g><path style="opacity:0.972" fill="#f607fb" d="M 180.5,7.5 C 180.5,8.16667 180.5,8.83333 180.5,9.5C 161.497,9.33338 142.497,9.50005 123.5,10C 117.667,11.8333 113.833,15.6667 112,21.5C 111.333,38.1667 111.333,54.8333 112,71.5C 112.725,76.0498 114.892,79.7164 118.5,82.5C 115.533,82.0114 112.867,80.8448 110.5,79C 109.177,78.1841 108.511,77.0174 108.5,75.5C 108.108,73.8211 107.608,72.1545 107,70.5C 106.22,52.1421 106.386,33.8088 107.5,15.5C 108.989,11.8467 111.656,9.34667 115.5,8C 137.164,7.50004 158.831,7.33337 180.5,7.5 Z"/></g>
<g><path style="opacity:0.008" fill="#461415" d="M 180.5,7.5 C 181.833,7.5 182.5,8.16667 182.5,9.5C 181.833,9.5 181.167,9.5 180.5,9.5C 180.5,8.83333 180.5,8.16667 180.5,7.5 Z"/></g>
<g><path style="opacity:0.992" fill="#e123f0" d="M 218.5,9.5 C 215.5,9.5 212.5,9.5 209.5,9.5C 209.5,34.5 209.5,59.5 209.5,84.5C 207.544,82.8516 205.211,82.1849 202.5,82.5C 202.5,57.5 202.5,32.5 202.5,7.5C 208.176,7.33391 213.843,7.50058 219.5,8C 218.944,8.38258 218.611,8.88258 218.5,9.5 Z"/></g>
<g><path style="opacity:0.958" fill="#e71df2" d="M 278.5,9.5 C 275.5,9.5 272.5,9.5 269.5,9.5C 269.5,19.5 269.5,29.5 269.5,39.5C 256.167,39.5 242.833,39.5 229.5,39.5C 229.328,38.5084 229.662,37.8417 230.5,37.5C 241.167,37.5 251.833,37.5 262.5,37.5C 262.5,27.5 262.5,17.5 262.5,7.5C 268.176,7.33391 273.843,7.50058 279.5,8C 278.944,8.38258 278.611,8.88258 278.5,9.5 Z"/></g>
<g><path style="opacity:0.926" fill="#6205ea" d="M 301.5,7.5 C 301.5,12.5 301.5,17.5 301.5,22.5C 300.761,22.631 300.094,22.4643 299.5,22C 300.144,17.0664 300.81,12.233 301.5,7.5 Z"/></g>
<g><path style="opacity:0.87" fill="#fd00fd" d="M 301.5,7.5 C 326.167,7.5 350.833,7.5 375.5,7.5C 352.858,9.4897 329.858,10.1564 306.5,9.5C 306.5,14.5 306.5,19.5 306.5,24.5C 305.221,23.032 303.554,22.3653 301.5,22.5C 301.5,17.5 301.5,12.5 301.5,7.5 Z"/></g>
<g><path style="opacity:0.776" fill="#2f00cc" d="M 398.5,7.5 C 398.197,23.5476 398.53,39.5476 399.5,55.5C 398.883,55.3893 398.383,55.056 398,54.5C 397.172,38.6612 397.339,22.9946 398.5,7.5 Z"/></g>
<g><path style="opacity:1" fill="#f20cf9" d="M 398.5,7.5 C 403.167,7.5 407.833,7.5 412.5,7.5C 412.5,8.16667 412.5,8.83333 412.5,9.5C 409.5,9.5 406.5,9.5 403.5,9.5C 403.046,25.5707 403.546,41.5707 405,57.5C 414.693,65.6985 424.193,74.0318 433.5,82.5C 430.984,82.2447 428.65,81.4114 426.5,80C 416.96,72.2865 407.96,64.1198 399.5,55.5C 398.53,39.5476 398.197,23.5476 398.5,7.5 Z"/></g>
<g><path style="opacity:0.01" fill="#451414" d="M 412.5,7.5 C 413.833,7.5 414.5,8.16667 414.5,9.5C 413.833,9.5 413.167,9.5 412.5,9.5C 412.5,8.83333 412.5,8.16667 412.5,7.5 Z"/></g>
<g><path style="opacity:0.989" fill="#e707f8" d="M 472.5,7.5 C 472.5,8.16667 472.5,8.83333 472.5,9.5C 469.5,9.5 466.5,9.5 463.5,9.5C 463.667,23.1707 463.5,36.8374 463,50.5C 456.898,56.4469 450.398,61.7802 443.5,66.5C 441.227,66.0432 439.894,64.7099 439.5,62.5C 439.833,62.5 440.167,62.5 440.5,62.5C 443.089,61.5806 445.089,59.914 446.5,57.5C 449.788,54.5507 453.121,51.5507 456.5,48.5C 457.499,34.8496 457.833,21.1829 457.5,7.5C 462.5,7.5 467.5,7.5 472.5,7.5 Z"/></g>
<g><path style="opacity:0.006" fill="#461415" d="M 472.5,7.5 C 473.833,7.5 474.5,8.16667 474.5,9.5C 473.833,9.5 473.167,9.5 472.5,9.5C 472.5,8.83333 472.5,8.16667 472.5,7.5 Z"/></g>
<g><path style="opacity:0.98" fill="#f914fb" d="M 561.5,8.5 C 545.338,9.33148 529.005,9.83148 512.5,10C 507.402,11.4329 503.902,14.5995 502,19.5C 501.5,41.1641 501.333,62.8308 501.5,84.5C 500.221,83.032 498.554,82.3653 496.5,82.5C 496.5,60.5 496.5,38.5 496.5,16.5C 498.118,12.3317 501.118,9.49841 505.5,8C 524.21,7.1925 542.877,7.35917 561.5,8.5 Z"/></g>
<g><path style="opacity:0.999" fill="#fcfefe" d="M 83.5,7.5 C 85.3609,8.84187 87.3609,9.84187 89.5,10.5C 89.5,15.1667 89.5,19.8333 89.5,24.5C 69.5,24.5 49.5,24.5 29.5,24.5C 29.5,29.5 29.5,34.5 29.5,39.5C 31.1667,39.5 32.8333,39.5 34.5,39.5C 48.0105,39.8289 61.3438,39.4956 74.5,38.5C 76.5,39.1667 78.5,39.8333 80.5,40.5C 84.4795,42.7508 87.3129,46.0842 89,50.5C 89.6667,57.8333 89.6667,65.1667 89,72.5C 87.1667,78.3333 83.3333,82.1667 77.5,84C 58.3289,84.1682 39.3289,84.6682 20.5,85.5C 18.6208,84.6586 16.6208,84.3253 14.5,84.5C 14.5,79.5 14.5,74.5 14.5,69.5C 34.5,69.5 54.5,69.5 74.5,69.5C 74.5,64.8333 74.5,60.1667 74.5,55.5C 72.8333,55.5 71.1667,55.5 69.5,55.5C 69.1667,55.5 68.8333,55.5 68.5,55.5C 55.4957,55.6666 42.4957,55.4999 29.5,55C 26.5432,54.7206 23.8766,53.8873 21.5,52.5C 18.3772,50.2791 16.2105,47.2791 15,43.5C 14.3333,35.5 14.3333,27.5 15,19.5C 16.9018,14.5995 20.4018,11.4329 25.5,10C 45.1926,10.1571 64.526,9.32373 83.5,7.5 Z"/></g>
<g><path style="opacity:1" fill="#fefdfe" d="M 180.5,9.5 C 181.167,9.5 181.833,9.5 182.5,9.5C 184.415,9.21552 186.081,9.54885 187.5,10.5C 186.514,14.97 186.181,19.6367 186.5,24.5C 166.5,24.5 146.5,24.5 126.5,24.5C 126.5,39.5 126.5,54.5 126.5,69.5C 128.5,69.5 130.5,69.5 132.5,69.5C 148.868,70.1514 164.868,69.4848 180.5,67.5C 182.732,68.8689 185.066,69.8689 187.5,70.5C 186.514,74.97 186.181,79.6367 186.5,84.5C 166.5,84.5 146.5,84.5 126.5,84.5C 123.579,84.7174 120.913,84.0507 118.5,82.5C 114.892,79.7164 112.725,76.0498 112,71.5C 111.333,54.8333 111.333,38.1667 112,21.5C 113.833,15.6667 117.667,11.8333 123.5,10C 142.497,9.50005 161.497,9.33338 180.5,9.5 Z"/></g>
<g><path style="opacity:1" fill="#fdfefe" d="M 218.5,9.5 C 220.735,9.20528 222.735,9.53862 224.5,10.5C 224.5,20.1667 224.5,29.8333 224.5,39.5C 226.167,39.5 227.833,39.5 229.5,39.5C 242.833,39.5 256.167,39.5 269.5,39.5C 269.5,29.5 269.5,19.5 269.5,9.5C 272.5,9.5 275.5,9.5 278.5,9.5C 280.735,9.20528 282.735,9.53862 284.5,10.5C 284.5,35.1667 284.5,59.8333 284.5,84.5C 281.167,84.5 277.833,84.5 274.5,84.5C 272.833,84.5 271.167,84.5 269.5,84.5C 269.5,74.8333 269.5,65.1667 269.5,55.5C 254.676,54.5039 239.676,54.1706 224.5,54.5C 224.5,64.5 224.5,74.5 224.5,84.5C 221.167,84.5 217.833,84.5 214.5,84.5C 212.833,84.5 211.167,84.5 209.5,84.5C 209.5,59.5 209.5,34.5 209.5,9.5C 212.5,9.5 215.5,9.5 218.5,9.5 Z"/></g>
<g><path style="opacity:1" fill="#fdfefe" d="M 375.5,7.5 C 377.693,8.89526 380.026,9.89526 382.5,10.5C 381.514,14.97 381.181,19.6367 381.5,24.5C 371.5,24.5 361.5,24.5 351.5,24.5C 351.5,39.5 351.5,54.5 351.5,69.5C 353.5,69.5 355.5,69.5 357.5,69.5C 363.926,70.12 369.926,69.4533 375.5,67.5C 377.693,68.8953 380.026,69.8953 382.5,70.5C 381.514,74.97 381.181,79.6367 381.5,84.5C 358.327,84.1692 335.327,84.5025 312.5,85.5C 310.621,84.6586 308.621,84.3253 306.5,84.5C 306.5,79.5 306.5,74.5 306.5,69.5C 316.5,69.5 326.5,69.5 336.5,69.5C 336.5,54.8333 336.5,40.1667 336.5,25.5C 334.5,25.5 332.5,25.5 330.5,25.5C 322.471,25.6563 314.471,25.323 306.5,24.5C 306.5,19.5 306.5,14.5 306.5,9.5C 329.858,10.1564 352.858,9.4897 375.5,7.5 Z"/></g>
<g><path style="opacity:1" fill="#fefbfe" d="M 412.5,9.5 C 413.167,9.5 413.833,9.5 414.5,9.5C 416.415,9.21552 418.081,9.54885 419.5,10.5C 418.175,23.6726 418.175,37.0059 419.5,50.5C 426.648,56.4806 433.648,62.6473 440.5,69C 442.489,69.5192 443.489,68.6859 443.5,66.5C 450.398,61.7802 456.898,56.4469 463,50.5C 463.5,36.8374 463.667,23.1707 463.5,9.5C 466.5,9.5 469.5,9.5 472.5,9.5C 473.167,9.5 473.833,9.5 474.5,9.5C 476.415,9.21552 478.081,9.54885 479.5,10.5C 478.97,26.4196 478.137,42.4196 477,58.5C 467.833,66.3333 458.667,74.1667 449.5,82C 446.978,83.3409 444.311,84.1743 441.5,84.5C 438.505,84.7062 435.838,84.0395 433.5,82.5C 424.193,74.0318 414.693,65.6985 405,57.5C 403.546,41.5707 403.046,25.5707 403.5,9.5C 406.5,9.5 409.5,9.5 412.5,9.5 Z"/></g>
<g><path style="opacity:1" fill="#fefefe" d="M 561.5,8.5 C 563.5,9.16667 565.5,9.83333 567.5,10.5C 571.48,12.7508 574.313,16.0842 576,20.5C 576.5,41.8307 576.667,63.1641 576.5,84.5C 573.287,84.19 570.287,84.5233 567.5,85.5C 565.621,84.6586 563.621,84.3253 561.5,84.5C 561.5,74.8333 561.5,65.1667 561.5,55.5C 546.676,54.5039 531.676,54.1706 516.5,54.5C 516.5,64.5 516.5,74.5 516.5,84.5C 513.287,84.19 510.287,84.5233 507.5,85.5C 505.621,84.6586 503.621,84.3253 501.5,84.5C 501.333,62.8308 501.5,41.1641 502,19.5C 503.902,14.5995 507.402,11.4329 512.5,10C 529.005,9.83148 545.338,9.33148 561.5,8.5 Z M 523.5,25.5 C 533.833,25.5 544.167,25.5 554.5,25.5C 555.392,29.4941 555.725,33.3274 555.5,37C 544.505,37.4998 533.505,37.6665 522.5,37.5C 522.237,33.3998 522.57,29.3998 523.5,25.5 Z"/></g>
<g><path style="opacity:1" fill="#19efe5" d="M 35.5,37.5 C 34.6618,37.8417 34.3284,38.5084 34.5,39.5C 32.8333,39.5 31.1667,39.5 29.5,39.5C 29.5,34.5 29.5,29.5 29.5,24.5C 49.5,24.5 69.5,24.5 89.5,24.5C 89.5,19.8333 89.5,15.1667 89.5,10.5C 91.3888,9.62011 93.3888,9.62011 95.5,10.5C 95.5,15.5 95.5,20.5 95.5,25.5C 75.5,25.5 55.5,25.5 35.5,25.5C 35.5,29.5 35.5,33.5 35.5,37.5 Z"/></g>
<g><path style="opacity:1" fill="#39fbf8" d="M 133.5,25.5 C 132.17,32.1333 131.503,39.1333 131.5,46.5C 131.5,53.6748 131.834,60.6748 132.5,67.5C 132.5,68.1667 132.5,68.8333 132.5,69.5C 130.5,69.5 128.5,69.5 126.5,69.5C 126.5,54.5 126.5,39.5 126.5,24.5C 146.5,24.5 166.5,24.5 186.5,24.5C 186.181,19.6367 186.514,14.97 187.5,10.5C 188.973,9.92855 190.64,9.92855 192.5,10.5C 192.5,15.5 192.5,20.5 192.5,25.5C 172.833,25.5 153.167,25.5 133.5,25.5 Z"/></g>
<g><path style="opacity:1" fill="#19e0d3" d="M 230.5,37.5 C 229.662,37.8417 229.328,38.5084 229.5,39.5C 227.833,39.5 226.167,39.5 224.5,39.5C 224.5,29.8333 224.5,20.1667 224.5,10.5C 226.598,9.03744 228.598,9.20411 230.5,11C 230.443,19.6235 230.443,28.4568 230.5,37.5 Z"/></g>
<g><path style="opacity:1" fill="#03fdfa" d="M 289.5,10.5 C 289.5,35.5 289.5,60.5 289.5,85.5C 284.305,85.8205 279.305,85.4872 274.5,84.5C 277.833,84.5 281.167,84.5 284.5,84.5C 284.5,59.8333 284.5,35.1667 284.5,10.5C 286.167,9.16667 287.833,9.16667 289.5,10.5 Z"/></g>
<g><path style="opacity:0.112" fill="#043f07" d="M 289.5,10.5 C 290.249,22.3406 290.915,34.3406 291.5,46.5C 290.908,59.6589 290.242,72.6589 289.5,85.5C 289.5,60.5 289.5,35.5 289.5,10.5 Z"/></g>
<g><path style="opacity:1" fill="#24faf6" d="M 358.5,25.5 C 357.17,32.1333 356.503,39.1333 356.5,46.5C 356.5,53.6748 356.834,60.6748 357.5,67.5C 357.5,68.1667 357.5,68.8333 357.5,69.5C 355.5,69.5 353.5,69.5 351.5,69.5C 351.5,54.5 351.5,39.5 351.5,24.5C 361.5,24.5 371.5,24.5 381.5,24.5C 381.181,19.6367 381.514,14.97 382.5,10.5C 383.802,9.19314 385.135,9.19314 386.5,10.5C 387.494,15.456 387.827,20.456 387.5,25.5C 377.833,25.5 368.167,25.5 358.5,25.5 Z"/></g>
<g><path style="opacity:1" fill="#3af7ec" d="M 424.5,10.5 C 424.5,12.5 424.5,14.5 424.5,16.5C 424.333,27.8382 424.5,39.1716 425,50.5C 429.726,54.7349 434.559,58.7349 439.5,62.5C 439.894,64.7099 441.227,66.0432 443.5,66.5C 443.489,68.6859 442.489,69.5192 440.5,69C 433.648,62.6473 426.648,56.4806 419.5,50.5C 418.175,37.0059 418.175,23.6726 419.5,10.5C 421.099,9.43795 422.766,9.43795 424.5,10.5 Z"/></g>
<g><path style="opacity:1" fill="#2ff2e7" d="M 441.5,84.5 C 444.311,84.1743 446.978,83.3409 449.5,82C 458.667,74.1667 467.833,66.3333 477,58.5C 478.137,42.4196 478.97,26.4196 479.5,10.5C 480.802,9.19314 482.135,9.19314 483.5,10.5C 483.833,18.3333 484.167,26.1667 484.5,34C 484.638,42.5975 484.138,51.0975 483,59.5C 473.079,68.7581 462.579,77.2581 451.5,85C 447.973,85.8075 444.64,85.6408 441.5,84.5 Z"/></g>
<g><path style="opacity:0.004" fill="#000200" d="M 424.5,10.5 C 427.167,12.5 427.167,14.5 424.5,16.5C 424.5,14.5 424.5,12.5 424.5,10.5 Z"/></g>
<g><path style="opacity:0.004" fill="#000000" d="M 427.5,11.5 C 429.337,11.6395 429.67,12.3061 428.5,13.5C 427.702,13.0431 427.369,12.3764 427.5,11.5 Z"/></g>
<g><path style="opacity:1" fill="#1eebdd" d="M 567.5,10.5 C 575.342,10.8407 580.175,14.8407 582,22.5C 582.5,43.4974 582.667,64.4974 582.5,85.5C 577.5,85.5 572.5,85.5 567.5,85.5C 570.287,84.5233 573.287,84.19 576.5,84.5C 576.667,63.1641 576.5,41.8307 576,20.5C 574.313,16.0842 571.48,12.7508 567.5,10.5 Z"/></g>
<g><path style="opacity:0.981" fill="#6601bf" d="M 9.5,17.5 C 9.3336,25.84 9.50027,34.1733 10,42.5C 10.7914,43.745 11.2914,45.0783 11.5,46.5C 9.30566,44.7786 8.139,42.4453 8,39.5C 7.33333,33.1667 7.33333,26.8333 8,20.5C 8.23209,19.2625 8.73209,18.2625 9.5,17.5 Z"/></g>
<g><path style="opacity:0.756" fill="#3500cb" d="M 107.5,15.5 C 106.386,33.8088 106.22,52.1421 107,70.5C 107.608,72.1545 108.108,73.8211 108.5,75.5C 107.034,74.653 106.2,73.3197 106,71.5C 105.333,53.8333 105.333,36.1667 106,18.5C 106.232,17.2625 106.732,16.2625 107.5,15.5 Z"/></g>
<g><path style="opacity:0.994" fill="#7000c1" d="M 496.5,16.5 C 496.5,38.5 496.5,60.5 496.5,82.5C 495.168,72.6893 494.501,62.5227 494.5,52C 494.667,41.8333 494.833,31.6667 495,21.5C 495.198,19.6183 495.698,17.9516 496.5,16.5 Z"/></g>
<g><path style="opacity:1" fill="#05fffe" d="M 561.5,25.5 C 559.167,25.5 556.833,25.5 554.5,25.5C 544.167,25.5 533.833,25.5 523.5,25.5C 521.577,29.0293 520.911,33.0293 521.5,37.5C 521.5,38.1667 521.5,38.8333 521.5,39.5C 519.833,39.5 518.167,39.5 516.5,39.5C 516.5,34.5 516.5,29.5 516.5,24.5C 531.676,24.1706 546.676,24.5039 561.5,25.5 Z"/></g>
<g><path style="opacity:1" fill="#f1fefd" d="M 330.5,25.5 C 332.5,25.5 334.5,25.5 336.5,25.5C 336.5,40.1667 336.5,54.8333 336.5,69.5C 326.5,69.5 316.5,69.5 306.5,69.5C 306.5,74.5 306.5,79.5 306.5,84.5C 305.221,83.032 303.554,82.3653 301.5,82.5C 301.5,77.5 301.5,72.5 301.5,67.5C 311.167,67.5 320.833,67.5 330.5,67.5C 330.5,53.5 330.5,39.5 330.5,25.5 Z"/></g>
<g><path style="opacity:0.664" fill="#07b668" d="M 358.5,25.5 C 357.167,39.5 357.167,53.5 358.5,67.5C 358.167,67.5 357.833,67.5 357.5,67.5C 356.834,60.6748 356.5,53.6748 356.5,46.5C 356.503,39.1333 357.17,32.1333 358.5,25.5 Z"/></g>
<g><path style="opacity:0.475" fill="#06752b" d="M 523.5,25.5 C 522.57,29.3998 522.237,33.3998 522.5,37.5C 522.167,37.5 521.833,37.5 521.5,37.5C 520.911,33.0293 521.577,29.0293 523.5,25.5 Z"/></g>
<g><path style="opacity:0.677" fill="#f113fb" d="M 554.5,25.5 C 556.833,25.5 559.167,25.5 561.5,25.5C 561.5,30.1667 561.5,34.8333 561.5,39.5C 548.167,39.5 534.833,39.5 521.5,39.5C 521.5,38.8333 521.5,38.1667 521.5,37.5C 521.833,37.5 522.167,37.5 522.5,37.5C 533.505,37.6665 544.505,37.4998 555.5,37C 555.725,33.3274 555.392,29.4941 554.5,25.5 Z"/></g>
<g><path style="opacity:0.901" fill="#04b866" d="M 133.5,25.5 C 132.52,38.4206 132.186,51.4206 132.5,64.5C 132.5,65.5 132.5,66.5 132.5,67.5C 131.834,60.6748 131.5,53.6748 131.5,46.5C 131.503,39.1333 132.17,32.1333 133.5,25.5 Z"/></g>
<g><path style="opacity:0.269" fill="#f914fa" d="M 35.5,37.5 C 48.5494,37.2041 61.5494,37.5374 74.5,38.5C 61.3438,39.4956 48.0105,39.8289 34.5,39.5C 34.3284,38.5084 34.6618,37.8417 35.5,37.5 Z"/></g>
<g><path style="opacity:1" fill="#22ede2" d="M 80.5,40.5 C 88.3422,40.8407 93.1755,44.8407 95,52.5C 95.6667,59.5 95.6667,66.5 95,73.5C 93.6572,79.3838 90.1572,83.2171 84.5,85C 63.1693,85.5 41.8359,85.6666 20.5,85.5C 39.3289,84.6682 58.3289,84.1682 77.5,84C 83.3333,82.1667 87.1667,78.3333 89,72.5C 89.6667,65.1667 89.6667,57.8333 89,50.5C 87.3129,46.0842 84.4795,42.7508 80.5,40.5 Z"/></g>
<g><path style="opacity:1" fill="#17e6dc" d="M 269.5,55.5 C 267.167,55.5 264.833,55.5 262.5,55.5C 251.833,55.5 241.167,55.5 230.5,55.5C 230.5,65.5 230.5,75.5 230.5,85.5C 224.974,85.8214 219.64,85.4881 214.5,84.5C 217.833,84.5 221.167,84.5 224.5,84.5C 224.5,74.5 224.5,64.5 224.5,54.5C 239.676,54.1706 254.676,54.5039 269.5,55.5 Z"/></g>
<g><path style="opacity:1" fill="#19efe5" d="M 561.5,55.5 C 559.833,55.5 558.167,55.5 556.5,55.5C 555.833,55.5 555.167,55.5 554.5,55.5C 543.833,55.5 533.167,55.5 522.5,55.5C 522.5,65.5 522.5,75.5 522.5,85.5C 517.5,85.5 512.5,85.5 507.5,85.5C 510.287,84.5233 513.287,84.19 516.5,84.5C 516.5,74.5 516.5,64.5 516.5,54.5C 531.676,54.1706 546.676,54.5039 561.5,55.5 Z"/></g>
<g><path style="opacity:0.359" fill="#7301c5" d="M 68.5,55.5 C 68.8333,55.5 69.1667,55.5 69.5,55.5C 70.0894,59.9707 69.4228,63.9707 67.5,67.5C 67.5838,63.5234 67.9171,59.5234 68.5,55.5 Z"/></g>
<g><path style="opacity:0.866" fill="#ed0df5" d="M 69.5,55.5 C 71.1667,55.5 72.8333,55.5 74.5,55.5C 74.5,60.1667 74.5,64.8333 74.5,69.5C 54.5,69.5 34.5,69.5 14.5,69.5C 14.5,74.5 14.5,79.5 14.5,84.5C 12.5441,82.8516 10.2108,82.1849 7.5,82.5C 7.5,77.5 7.5,72.5 7.5,67.5C 27.5,67.5 47.5,67.5 67.5,67.5C 69.4228,63.9707 70.0894,59.9707 69.5,55.5 Z"/></g>
<g><path style="opacity:1" fill="#df24f0" d="M 262.5,55.5 C 264.833,55.5 267.167,55.5 269.5,55.5C 269.5,65.1667 269.5,74.8333 269.5,84.5C 267.544,82.8516 265.211,82.1849 262.5,82.5C 262.5,73.5 262.5,64.5 262.5,55.5 Z"/></g>
<g><path style="opacity:0.972" fill="#6701b7" d="M 554.5,55.5 C 555.167,55.5 555.833,55.5 556.5,55.5C 556.5,64.5 556.5,73.5 556.5,82.5C 555.184,79.9134 554.517,76.9134 554.5,73.5C 555.244,67.4229 555.244,61.4229 554.5,55.5 Z"/></g>
<g><path style="opacity:0.998" fill="#fc17fd" d="M 556.5,55.5 C 558.167,55.5 559.833,55.5 561.5,55.5C 561.5,65.1667 561.5,74.8333 561.5,84.5C 560.221,83.032 558.554,82.3653 556.5,82.5C 556.5,73.5 556.5,64.5 556.5,55.5 Z"/></g>
<g><path style="opacity:0.659" fill="#410c97" d="M 446.5,57.5 C 445.089,59.914 443.089,61.5806 440.5,62.5C 441.911,60.086 443.911,58.4194 446.5,57.5 Z"/></g>
<g><path style="opacity:0.004" fill="#000000" d="M 132.5,64.5 C 135.767,65.0311 136.1,66.0311 133.5,67.5C 133.167,67.5 132.833,67.5 132.5,67.5C 132.5,66.5 132.5,65.5 132.5,64.5 Z"/></g>
<g><path style="opacity:0.004" fill="#000000" d="M 358.5,64.5 C 359.833,65.1667 359.833,65.1667 358.5,64.5 Z"/></g>
<g><path style="opacity:0.965" fill="#fe00fe" d="M 132.5,67.5 C 132.833,67.5 133.167,67.5 133.5,67.5C 149.167,67.5 164.833,67.5 180.5,67.5C 164.868,69.4848 148.868,70.1514 132.5,69.5C 132.5,68.8333 132.5,68.1667 132.5,67.5 Z"/></g>
<g><path style="opacity:0.991" fill="#5c0adc" d="M 301.5,67.5 C 301.5,72.5 301.5,77.5 301.5,82.5C 300.761,82.631 300.094,82.4643 299.5,82C 300.833,77.3333 300.833,72.6667 299.5,68C 300.094,67.5357 300.761,67.369 301.5,67.5 Z"/></g>
<g><path style="opacity:0.921" fill="#fd00fd" d="M 357.5,67.5 C 357.833,67.5 358.167,67.5 358.5,67.5C 364.167,67.5 369.833,67.5 375.5,67.5C 369.926,69.4533 363.926,70.12 357.5,69.5C 357.5,68.8333 357.5,68.1667 357.5,67.5 Z"/></g>
<g><path style="opacity:1" fill="#2ef5ee" d="M 187.5,70.5 C 189.167,70.5 190.833,70.5 192.5,70.5C 192.5,75.5 192.5,80.5 192.5,85.5C 170.327,85.8307 148.327,85.4974 126.5,84.5C 146.5,84.5 166.5,84.5 186.5,84.5C 186.181,79.6367 186.514,74.97 187.5,70.5 Z"/></g>
<g><path style="opacity:1" fill="#1cf9f2" d="M 382.5,70.5 C 384.167,70.5 385.833,70.5 387.5,70.5C 387.5,75.5 387.5,80.5 387.5,85.5C 362.5,85.5 337.5,85.5 312.5,85.5C 335.327,84.5025 358.327,84.1692 381.5,84.5C 381.181,79.6367 381.514,74.97 382.5,70.5 Z"/></g>
</svg>
