<?xml version="1.0" encoding="UTF-8"?>
<!DOCTYPE svg PUBLIC "-//W3C//DTD SVG 1.1//EN" "http://www.w3.org/Graphics/SVG/1.1/DTD/svg11.dtd">
<svg xmlns="http://www.w3.org/2000/svg" version="1.1" width="64px" height="64px" style="shape-rendering:geometricPrecision; text-rendering:geometricPrecision; image-rendering:optimizeQuality; fill-rule:evenodd; clip-rule:evenodd" xmlns:xlink="http://www.w3.org/1999/xlink">
<g><path style="opacity:0.681" fill="#FFFFFF" d="M 18.5,11.5 C 16.5,11.5 14.5,11.5 12.5,11.5C 12.5,9.5 12.5,7.5 12.5,5.5C 14.5,5.5 16.5,5.5 18.5,5.5C 18.5,7.5 18.5,9.5 18.5,11.5 Z"/></g>
<g><path style="opacity:0.599" fill="#FFFFFF" d="M 18.5,11.5 C 19.9953,11.4148 20.9953,12.0815 21.5,13.5C 20.0499,14.8498 19.3832,16.5165 19.5,18.5C 18.5,18.5 17.5,18.5 16.5,18.5C 16.3939,15.9214 17.0605,13.588 18.5,11.5 Z"/></g>
<g><path style="opacity:0.68" fill="#FFFFFF" d="M 5.5,12.5 C 7.5,12.5 9.5,12.5 11.5,12.5C 11.5,14.5 11.5,16.5 11.5,18.5C 9.5,18.5 7.5,18.5 5.5,18.5C 5.5,16.5 5.5,14.5 5.5,12.5 Z"/></g>
<g><path style="opacity:0.671" fill="#FFFFFF" d="M 63.5,17.5 C 63.5,19.1667 63.5,20.8333 63.5,22.5C 57.1816,26.1594 50.515,28.9927 43.5,31C 45.2254,43.1973 40.2254,51.5307 28.5,56C 16.613,60.088 6.9463,57.2546 -0.5,47.5C -0.5,45.5 -0.5,43.5 -0.5,41.5C 0.833333,40.1667 0.833333,38.8333 -0.5,37.5C -0.5,36.8333 -0.5,36.1667 -0.5,35.5C 0.47449,34.365 1.64116,33.365 3,32.5C 3.33333,29.5 3.66667,26.5 4,23.5C 6,22.1667 8,22.1667 10,23.5C 10.1802,26.9555 10.8468,30.2889 12,33.5C 13.8981,30.278 15.7314,26.9447 17.5,23.5C 18.5,23.8333 19.1667,24.5 19.5,25.5C 18.8333,26.8333 18.1667,28.1667 17.5,29.5C 18,29.8333 18.5,30.1667 19,30.5C 26.2738,27.92 33.7738,26.92 41.5,27.5C 41.2965,25.6096 41.9632,24.1096 43.5,23C 48.1667,21 52.8333,19 57.5,17C 59.5976,16.3224 61.5976,16.4891 63.5,17.5 Z M 58.5,19.5 C 60.3786,19.3932 60.7119,19.8932 59.5,21C 56.0473,23.2401 52.3806,24.5735 48.5,25C 51.7672,22.8713 55.1005,21.038 58.5,19.5 Z M 6.5,43.5 C 4.61322,42.2321 3.61322,40.3987 3.5,38C 4.78341,33.7896 5.95008,29.6229 7,25.5C 6.85927,32.8025 9.35927,38.9692 14.5,44C 14,44.1667 13.5,44.3333 13,44.5C 11.4487,42.106 9.28204,40.7727 6.5,40.5C 6.5,41.5 6.5,42.5 6.5,43.5 Z M 28.5,30.5 C 30.288,30.2148 31.9547,30.5481 33.5,31.5C 31.0214,39.2451 25.688,42.7451 17.5,42C 15.1667,41 13.5,39.3333 12.5,37C 13.9901,35.228 15.6568,35.0613 17.5,36.5C 20.5936,33.3649 24.2603,31.3649 28.5,30.5 Z M 38.5,31.5 C 39.0768,30.2267 39.7435,30.2267 40.5,31.5C 40.0302,32.463 39.3635,32.463 38.5,31.5 Z M 40.5,35.5 C 40.3032,43.9477 35.9699,49.7811 27.5,53C 19.0214,55.9233 11.3547,54.59 4.5,49C 16.7121,47.929 28.0455,44.2623 38.5,38C 39.3805,37.2917 40.0472,36.4584 40.5,35.5 Z"/></g>
<g><path style="opacity:1" fill="#FFFFFF" d="M 1.5,18.5 C 3.33702,18.6395 3.67036,19.3061 2.5,20.5C 1.70245,20.0431 1.36912,19.3764 1.5,18.5 Z"/></g>
<g><path style="opacity:1" fill="#FFFFFF" d="M 12.5,19.5 C 14.337,19.6395 14.6704,20.3061 13.5,21.5C 12.7025,21.0431 12.3691,20.3764 12.5,19.5 Z"/></g>
<g><path style="opacity:1" fill="#FFFFFF" d="M 11.5,28.5 C 13.337,28.6395 13.6704,29.3061 12.5,30.5C 11.7025,30.0431 11.3691,29.3764 11.5,28.5 Z"/></g>
<g><path style="opacity:1" fill="#FFFFFF" d="M 17.5,37.5 C 19.337,37.6395 19.6704,38.3061 18.5,39.5C 17.7025,39.0431 17.3691,38.3764 17.5,37.5 Z"/></g>
</svg>
