<?xml version="1.0" encoding="UTF-8"?>
<!DOCTYPE svg PUBLIC "-//W3C//DTD SVG 1.1//EN" "http://www.w3.org/Graphics/SVG/1.1/DTD/svg11.dtd">
<svg xmlns="http://www.w3.org/2000/svg" version="1.1" width="96px" height="96px" style="shape-rendering:geometricPrecision; text-rendering:geometricPrecision; image-rendering:optimizeQuality; fill-rule:evenodd; clip-rule:evenodd" xmlns:xlink="http://www.w3.org/1999/xlink">
<g><path style="opacity:0.844" fill="#FFFFFF" d="M 65.5,15.5 C 73.6577,14.8229 77.1577,18.4895 76,26.5C 73.7742,30.8608 70.2742,32.3608 65.5,31C 61.1392,28.7742 59.6392,25.2742 61,20.5C 62.025,18.313 63.525,16.6464 65.5,15.5 Z"/></g>
<g><path style="opacity:0.875" fill="#FFFFFF" d="M 40.5,20.5 C 42.8568,20.3367 45.1902,20.5034 47.5,21C 52.6382,24.1424 57.1382,27.9758 61,32.5C 61.94,36.1011 63.1067,39.6011 64.5,43C 68.8629,43.3694 73.1962,43.8694 77.5,44.5C 77.5,46.1667 77.5,47.8333 77.5,49.5C 71.4908,49.6662 65.4908,49.4995 59.5,49C 58.4582,47.082 57.2915,45.2487 56,43.5C 53.1726,45.4945 50.6726,47.8278 48.5,50.5C 49.576,54.6379 50.576,58.8046 51.5,63C 51.5607,64.7106 50.8941,66.044 49.5,67C 41.8333,67.6667 34.1667,67.6667 26.5,67C 23.8333,65 23.8333,63 26.5,61C 31.1903,60.4971 35.857,59.8304 40.5,59C 37.9536,55.41 35.7869,51.5766 34,47.5C 32.7984,43.2071 33.9651,39.7071 37.5,37C 40.8333,34.6667 44.1667,32.3333 47.5,30C 46.2748,28.437 44.7748,27.2703 43,26.5C 38.5696,27.6551 34.0696,28.3218 29.5,28.5C 29.2148,26.712 29.5481,25.0453 30.5,23.5C 33.9535,22.4873 37.2869,21.4873 40.5,20.5 Z"/></g>
<g><path style="opacity:0.912" fill="#FFFFFF" d="M 12.5,32.5 C 19.8409,32.3337 27.1742,32.5003 34.5,33C 33.8333,33.6667 33.1667,34.3333 32.5,35C 25.8417,35.4996 19.175,35.6663 12.5,35.5C 12.5,34.5 12.5,33.5 12.5,32.5 Z"/></g>
<g><path style="opacity:0.95" fill="#FFFFFF" d="M 9.5,41.5 C 15.1667,41.5 20.8333,41.5 26.5,41.5C 26.5,42.5 26.5,43.5 26.5,44.5C 20.8333,44.5 15.1667,44.5 9.5,44.5C 9.5,43.5 9.5,42.5 9.5,41.5 Z"/></g>
<g><path style="opacity:0.907" fill="#FFFFFF" d="M 12.5,50.5 C 17.544,50.1725 22.544,50.5059 27.5,51.5C 27.7093,52.086 28.0426,52.586 28.5,53C 23.1771,53.4994 17.8437,53.666 12.5,53.5C 12.5,52.5 12.5,51.5 12.5,50.5 Z"/></g>
<g><path style="opacity:0.807" fill="#FFFFFF" d="M 37.5,71.5 C 40.8499,71.335 44.1832,71.5017 47.5,72C 44.627,76.2064 41.127,79.7064 37,82.5C 35.1667,82 34,80.8333 33.5,79C 34.644,76.3675 35.9773,73.8675 37.5,71.5 Z"/></g>
</svg>
