<?xml version="1.0" encoding="UTF-8"?>
<!DOCTYPE svg PUBLIC "-//W3C//DTD SVG 1.1//EN" "http://www.w3.org/Graphics/SVG/1.1/DTD/svg11.dtd">
<svg xmlns="http://www.w3.org/2000/svg" version="1.1" width="64px" height="64px" style="shape-rendering:geometricPrecision; text-rendering:geometricPrecision; image-rendering:optimizeQuality; fill-rule:evenodd; clip-rule:evenodd" xmlns:xlink="http://www.w3.org/1999/xlink">
<g><path style="opacity:0.883" fill="#FFFFFF" d="M 47.5,1.5 C 48.5862,1.61998 49.2528,2.28665 49.5,3.5C 49.1667,4.16667 48.8333,4.83333 48.5,5.5C 47.5713,4.31116 47.238,2.97782 47.5,1.5 Z"/></g>
<g><path style="opacity:0.541" fill="#FFFFFF" d="M 45.5,7.5 C 44.8333,7.5 44.1667,7.5 43.5,7.5C 43.5,6.83333 43.1667,6.5 42.5,6.5C 42.238,5.02218 42.5713,3.68884 43.5,2.5C 45.2174,3.66848 45.8841,5.33515 45.5,7.5 Z"/></g>
<g><path style="opacity:0.541" fill="#FFFFFF" d="M 54.5,6.5 C 53.8333,6.5 53.5,6.83333 53.5,7.5C 52.8333,7.5 52.1667,7.5 51.5,7.5C 51.1159,5.33515 51.7826,3.66848 53.5,2.5C 54.4287,3.68884 54.762,5.02218 54.5,6.5 Z"/></g>
<g><path style="opacity:0.543" fill="#FFFFFF" d="M 42.5,6.5 C 43.1667,6.5 43.5,6.83333 43.5,7.5C 43.5,8.16667 43.5,8.83333 43.5,9.5C 41.3352,9.88411 39.6685,9.21744 38.5,7.5C 39.6888,6.57131 41.0222,6.23798 42.5,6.5 Z"/></g>
<g><path style="opacity:0.543" fill="#FFFFFF" d="M 54.5,6.5 C 55.9778,6.23798 57.3112,6.57131 58.5,7.5C 57.3315,9.21744 55.6648,9.88411 53.5,9.5C 53.5,8.83333 53.5,8.16667 53.5,7.5C 54.1667,7.5 54.5,7.16667 54.5,6.5 Z"/></g>
<g><path style="opacity:0.708" fill="#FFFFFF" d="M 18.5,7.5 C 19.8333,7.5 21.1667,7.5 22.5,7.5C 24.2643,13.6994 26.5976,19.6994 29.5,25.5C 30.9501,24.1502 31.6168,22.4835 31.5,20.5C 32.8333,20.5 34.1667,20.5 35.5,20.5C 38.927,30.6935 42.927,40.6935 47.5,50.5C 48.8498,51.9501 50.5165,52.6168 52.5,52.5C 52.665,49.1501 52.4983,45.8168 52,42.5C 50.7365,44.607 48.9032,45.607 46.5,45.5C 46.3505,44.448 46.5172,43.448 47,42.5C 49.6131,40.5985 51.2797,38.2652 52,35.5C 50.8904,37.0368 49.3904,37.7035 47.5,37.5C 49.6415,29.6732 53.4748,28.6732 59,34.5C 59.4828,35.448 59.6495,36.448 59.5,37.5C 57.6096,37.7035 56.1096,37.0368 55,35.5C 55.7203,38.2652 57.3869,40.5985 60,42.5C 60.4828,43.448 60.6495,44.448 60.5,45.5C 58.0968,45.607 56.2635,44.607 55,42.5C 54.5017,45.8168 54.335,49.1501 54.5,52.5C 59.6489,52.6511 61.9822,55.3178 61.5,60.5C 41.5,60.5 21.5,60.5 1.5,60.5C 1.33398,55.1563 1.50065,49.8229 2,44.5C 5.2117,36.6995 7.7117,28.6995 9.5,20.5C 11.451,20.2267 12.951,20.8934 14,22.5C 15.8102,17.5713 17.3102,12.5713 18.5,7.5 Z M 19.5,14.5 C 21.335,15.1223 22.5017,16.4556 23,18.5C 26.1137,27.1783 29.6137,35.6783 33.5,44C 27.2982,44.8271 21.6315,43.4938 16.5,40C 13.4465,39.8214 10.4465,39.3214 7.5,38.5C 9.09866,34.2041 10.5987,29.8708 12,25.5C 13.3561,26.3802 14.8561,26.7135 16.5,26.5C 17.5,22.5 18.5,18.5 19.5,14.5 Z M 32.5,26.5 C 33.4972,26.4701 34.1639,26.9701 34.5,28C 37.4478,34.3141 39.7811,40.4807 41.5,46.5C 36.1709,42.6556 32.8376,37.3223 31.5,30.5C 31.8457,29.1508 32.179,27.8175 32.5,26.5 Z M 7.5,42.5 C 12.2868,41.9699 16.6202,43.1366 20.5,46C 26.2306,46.2096 31.8973,46.8763 37.5,48C 40.1667,50 42.8333,52 45.5,54C 48.5,54.3333 51.5,54.6667 54.5,55C 56.2909,55.4152 57.6243,56.4152 58.5,58C 40.1605,58.5349 21.8272,58.3683 3.5,57.5C 2.8273,51.85 4.16063,46.85 7.5,42.5 Z"/></g>
<g><path style="opacity:0.699" fill="#FFFFFF" d="M 45.5,7.5 C 47.5,7.5 49.5,7.5 51.5,7.5C 51.8333,8.5 52.5,9.16667 53.5,9.5C 53.5,11.5 53.5,13.5 53.5,15.5C 52.5,15.8333 51.8333,16.5 51.5,17.5C 49.5,17.5 47.5,17.5 45.5,17.5C 45.1667,16.5 44.5,15.8333 43.5,15.5C 43.5,13.5 43.5,11.5 43.5,9.5C 44.5,9.16667 45.1667,8.5 45.5,7.5 Z M 46.5,10.5 C 47.8333,10.5 49.1667,10.5 50.5,10.5C 50.5,11.8333 50.5,13.1667 50.5,14.5C 49.1667,14.5 47.8333,14.5 46.5,14.5C 46.5,13.1667 46.5,11.8333 46.5,10.5 Z"/></g>
<g><path style="opacity:0.883" fill="#FFFFFF" d="M 37.5,11.5 C 38.9778,11.238 40.3112,11.5713 41.5,12.5C 40.8333,12.8333 40.1667,13.1667 39.5,13.5C 38.2867,13.2528 37.62,12.5862 37.5,11.5 Z"/></g>
<g><path style="opacity:0.883" fill="#FFFFFF" d="M 55.5,11.5 C 56.9778,11.238 58.3112,11.5713 59.5,12.5C 58.8333,12.8333 58.1667,13.1667 57.5,13.5C 56.2867,13.2528 55.62,12.5862 55.5,11.5 Z"/></g>
<g><path style="opacity:0.541" fill="#FFFFFF" d="M 43.5,15.5 C 43.5,16.1667 43.5,16.8333 43.5,17.5C 42.8333,17.5 42.5,17.8333 42.5,18.5C 41.0222,18.762 39.6888,18.4287 38.5,17.5C 39.6685,15.7826 41.3352,15.1159 43.5,15.5 Z"/></g>
<g><path style="opacity:0.541" fill="#FFFFFF" d="M 53.5,15.5 C 55.6648,15.1159 57.3315,15.7826 58.5,17.5C 57.3112,18.4287 55.9778,18.762 54.5,18.5C 54.5,17.8333 54.1667,17.5 53.5,17.5C 53.5,16.8333 53.5,16.1667 53.5,15.5 Z"/></g>
<g><path style="opacity:0.541" fill="#FFFFFF" d="M 43.5,17.5 C 44.1667,17.5 44.8333,17.5 45.5,17.5C 45.8841,19.6648 45.2174,21.3315 43.5,22.5C 42.5713,21.3112 42.238,19.9778 42.5,18.5C 43.1667,18.5 43.5,18.1667 43.5,17.5 Z"/></g>
<g><path style="opacity:0.541" fill="#FFFFFF" d="M 51.5,17.5 C 52.1667,17.5 52.8333,17.5 53.5,17.5C 54.1667,17.5 54.5,17.8333 54.5,18.5C 54.762,19.9778 54.4287,21.3112 53.5,22.5C 51.7826,21.3315 51.1159,19.6648 51.5,17.5 Z"/></g>
<g><path style="opacity:0.883" fill="#FFFFFF" d="M 47.5,19.5 C 48.5862,19.62 49.2528,20.2867 49.5,21.5C 49.1667,22.1667 48.8333,22.8333 48.5,23.5C 47.5713,22.3112 47.238,20.9778 47.5,19.5 Z"/></g>
</svg>
