<?xml version="1.0" encoding="UTF-8"?>
<!DOCTYPE svg PUBLIC "-//W3C//DTD SVG 1.1//EN" "http://www.w3.org/Graphics/SVG/1.1/DTD/svg11.dtd">
<svg xmlns="http://www.w3.org/2000/svg" version="1.1" width="96px" height="96px" style="shape-rendering:geometricPrecision; text-rendering:geometricPrecision; image-rendering:optimizeQuality; fill-rule:evenodd; clip-rule:evenodd" xmlns:xlink="http://www.w3.org/1999/xlink">
<g><path style="opacity:0.908" fill="#FFFFFF" d="M 62.5,5.5 C 74.3244,3.8236 79.1577,8.8236 77,20.5C 73.3449,25.2745 68.5116,26.7745 62.5,25C 57.7255,21.3449 56.2255,16.5116 58,10.5C 59.3657,8.63834 60.8657,6.97167 62.5,5.5 Z"/></g>
<g><path style="opacity:0.925" fill="#FFFFFF" d="M 22.5,7.5 C 24.8568,7.33669 27.1902,7.50335 29.5,8C 31.6227,12.4153 34.1227,16.582 37,20.5C 39.5659,15.2425 43.2326,14.2425 48,17.5C 53.3117,28.6221 58.4784,39.7887 63.5,51C 58.5044,49.6872 53.5044,48.0206 48.5,46C 40.413,45.4839 32.413,45.8173 24.5,47C 19.7373,43.952 14.7373,41.452 9.5,39.5C 13.3138,28.5506 17.6471,17.884 22.5,7.5 Z"/></g>
<g><path style="opacity:0.928" fill="#FFFFFF" d="M 77.5,29.5 C 79.5273,29.3379 81.5273,29.5045 83.5,30C 86.6908,33.69 89.6908,37.5233 92.5,41.5C 89.5756,46.6258 86.7423,46.6258 84,41.5C 83.4795,43.2889 83.8129,44.9556 85,46.5C 88.0652,49.062 90.5652,52.062 92.5,55.5C 89.5756,60.6258 86.7423,60.6258 84,55.5C 83.5017,58.8168 83.335,62.1501 83.5,65.5C 85.9032,65.393 87.7365,66.393 89,68.5C 89.6667,73.8333 89.6667,79.1667 89,84.5C 88.1667,85.3333 87.3333,86.1667 86.5,87C 79.8333,87.6667 73.1667,87.6667 66.5,87C 57.1348,78.148 46.1348,72.148 33.5,69C 24.2394,67.1982 14.9061,66.0315 5.5,65.5C 5.33398,60.1563 5.50065,54.8229 6,49.5C 6.40596,47.2206 7.73929,45.8873 10,45.5C 15.0876,46.5248 19.5876,48.6914 23.5,52C 31.7518,50.8645 40.0851,50.5312 48.5,51C 54.5598,52.8636 60.2264,55.5302 65.5,59C 69.4299,60.4774 73.4299,61.6441 77.5,62.5C 77.6633,60.1432 77.4966,57.8098 77,55.5C 74.2577,60.6258 71.4244,60.6258 68.5,55.5C 71.7083,51.4622 74.7083,47.2956 77.5,43C 77.3333,42.5 77.1667,42 77,41.5C 74.2577,46.6258 71.4244,46.6258 68.5,41.5C 71.5244,37.4815 74.5244,33.4815 77.5,29.5 Z"/></g>
<g><path style="opacity:0.948" fill="#FFFFFF" d="M 5.5,71.5 C 25.5132,69.896 43.5132,75.0627 59.5,87C 42.5,87.6667 25.5,87.6667 8.5,87C 7.66667,86.1667 6.83333,85.3333 6,84.5C 5.50098,80.1794 5.33432,75.8461 5.5,71.5 Z"/></g>
</svg>
